<svg class="rich-terminal" viewBox="0 0 1251 879.5999999999999" xmlns="http://www.w3.org/2000/svg">
    <!-- Generated with Rich https://www.textualize.io -->
    <style>

    @font-face {
        font-family: "Fira Code";
        src: local("FiraCode-Regular"),
                url("https://cdnjs.cloudflare.com/ajax/libs/firacode/6.2.0/woff2/FiraCode-Regular.woff2") format("woff2"),
                url("https://cdnjs.cloudflare.com/ajax/libs/firacode/6.2.0/woff/FiraCode-Regular.woff") format("woff");
        font-style: normal;
        font-weight: 400;
    }
    @font-face {
        font-family: "Fira Code";
        src: local("FiraCode-Bold"),
                url("https://cdnjs.cloudflare.com/ajax/libs/firacode/6.2.0/woff2/FiraCode-Bold.woff2") format("woff2"),
                url("https://cdnjs.cloudflare.com/ajax/libs/firacode/6.2.0/woff/FiraCode-Bold.woff") format("woff");
        font-style: bold;
        font-weight: 700;
    }

    .terminal-87433680-matrix {
        font-family: Fira Code, monospace;
        font-size: 20px;
        line-height: 24.4px;
        font-variant-east-asian: full-width;
    }

    .terminal-87433680-title {
        font-size: 18px;
        font-weight: bold;
        font-family: arial;
    }

    .terminal-87433680-r1 { fill: #c5c8c6 }
.terminal-87433680-r2 { fill: #e0e0e0 }
.terminal-87433680-r3 { fill: #a1a1a1 }
.terminal-87433680-r4 { fill: #98e024;font-weight: bold }
.terminal-87433680-r5 { fill: #58d1eb;font-weight: bold }
.terminal-87433680-r6 { fill: #4797a8 }
.terminal-87433680-r7 { fill: #9d65ff;font-weight: bold }
.terminal-87433680-r8 { fill: #744fb5 }
.terminal-87433680-r9 { fill: #9d65ff }
.terminal-87433680-r10 { fill: #58d1eb }
.terminal-87433680-r11 { fill: #777777 }
.terminal-87433680-r12 { fill: #121212 }
.terminal-87433680-r13 { fill: #191919 }
.terminal-87433680-r14 { fill: #737373 }
.terminal-87433680-r15 { fill: #ffa62b;font-weight: bold }
.terminal-87433680-r16 { fill: #495259 }
    </style>

    <defs>
    <clipPath id="terminal-87433680-clip-terminal">
      <rect x="0" y="0" width="1231.1999999999998" height="828.5999999999999" />
    </clipPath>
    <clipPath id="terminal-87433680-line-0">
    <rect x="0" y="1.5" width="1232.2" height="24.65"/>
            </clipPath>
<clipPath id="terminal-87433680-line-1">
    <rect x="0" y="25.9" width="1232.2" height="24.65"/>
            </clipPath>
<clipPath id="terminal-87433680-line-2">
    <rect x="0" y="50.3" width="1232.2" height="24.65"/>
            </clipPath>
<clipPath id="terminal-87433680-line-3">
    <rect x="0" y="74.7" width="1232.2" height="24.65"/>
            </clipPath>
<clipPath id="terminal-87433680-line-4">
    <rect x="0" y="99.1" width="1232.2" height="24.65"/>
            </clipPath>
<clipPath id="terminal-87433680-line-5">
    <rect x="0" y="123.5" width="1232.2" height="24.65"/>
            </clipPath>
<clipPath id="terminal-87433680-line-6">
    <rect x="0" y="147.9" width="1232.2" height="24.65"/>
            </clipPath>
<clipPath id="terminal-87433680-line-7">
    <rect x="0" y="172.3" width="1232.2" height="24.65"/>
            </clipPath>
<clipPath id="terminal-87433680-line-8">
    <rect x="0" y="196.7" width="1232.2" height="24.65"/>
            </clipPath>
<clipPath id="terminal-87433680-line-9">
    <rect x="0" y="221.1" width="1232.2" height="24.65"/>
            </clipPath>
<clipPath id="terminal-87433680-line-10">
    <rect x="0" y="245.5" width="1232.2" height="24.65"/>
            </clipPath>
<clipPath id="terminal-87433680-line-11">
    <rect x="0" y="269.9" width="1232.2" height="24.65"/>
            </clipPath>
<clipPath id="terminal-87433680-line-12">
    <rect x="0" y="294.3" width="1232.2" height="24.65"/>
            </clipPath>
<clipPath id="terminal-87433680-line-13">
    <rect x="0" y="318.7" width="1232.2" height="24.65"/>
            </clipPath>
<clipPath id="terminal-87433680-line-14">
    <rect x="0" y="343.1" width="1232.2" height="24.65"/>
            </clipPath>
<clipPath id="terminal-87433680-line-15">
    <rect x="0" y="367.5" width="1232.2" height="24.65"/>
            </clipPath>
<clipPath id="terminal-87433680-line-16">
    <rect x="0" y="391.9" width="1232.2" height="24.65"/>
            </clipPath>
<clipPath id="terminal-87433680-line-17">
    <rect x="0" y="416.3" width="1232.2" height="24.65"/>
            </clipPath>
<clipPath id="terminal-87433680-line-18">
    <rect x="0" y="440.7" width="1232.2" height="24.65"/>
            </clipPath>
<clipPath id="terminal-87433680-line-19">
    <rect x="0" y="465.1" width="1232.2" height="24.65"/>
            </clipPath>
<clipPath id="terminal-87433680-line-20">
    <rect x="0" y="489.5" width="1232.2" height="24.65"/>
            </clipPath>
<clipPath id="terminal-87433680-line-21">
    <rect x="0" y="513.9" width="1232.2" height="24.65"/>
            </clipPath>
<clipPath id="terminal-87433680-line-22">
    <rect x="0" y="538.3" width="1232.2" height="24.65"/>
            </clipPath>
<clipPath id="terminal-87433680-line-23">
    <rect x="0" y="562.7" width="1232.2" height="24.65"/>
            </clipPath>
<clipPath id="terminal-87433680-line-24">
    <rect x="0" y="587.1" width="1232.2" height="24.65"/>
            </clipPath>
<clipPath id="terminal-87433680-line-25">
    <rect x="0" y="611.5" width="1232.2" height="24.65"/>
            </clipPath>
<clipPath id="terminal-87433680-line-26">
    <rect x="0" y="635.9" width="1232.2" height="24.65"/>
            </clipPath>
<clipPath id="terminal-87433680-line-27">
    <rect x="0" y="660.3" width="1232.2" height="24.65"/>
            </clipPath>
<clipPath id="terminal-87433680-line-28">
    <rect x="0" y="684.7" width="1232.2" height="24.65"/>
            </clipPath>
<clipPath id="terminal-87433680-line-29">
    <rect x="0" y="709.1" width="1232.2" height="24.65"/>
            </clipPath>
<clipPath id="terminal-87433680-line-30">
    <rect x="0" y="733.5" width="1232.2" height="24.65"/>
            </clipPath>
<clipPath id="terminal-87433680-line-31">
    <rect x="0" y="757.9" width="1232.2" height="24.65"/>
            </clipPath>
<clipPath id="terminal-87433680-line-32">
    <rect x="0" y="782.3" width="1232.2" height="24.65"/>
            </clipPath>
    </defs>

    <rect fill="#292929" stroke="rgba(255,255,255,0.35)" stroke-width="1" x="1" y="1" width="1249" height="877.6" rx="8"/><text class="terminal-87433680-title" fill="#c5c8c6" text-anchor="middle" x="624" y="27">supervis</text>
            <g transform="translate(26,22)">
            <circle cx="0" cy="0" r="7" fill="#ff5f57"/>
            <circle cx="22" cy="0" r="7" fill="#febc2e"/>
            <circle cx="44" cy="0" r="7" fill="#28c840"/>
            </g>
        
    <g transform="translate(9, 41)" clip-path="url(#terminal-87433680-clip-terminal)">
    <rect fill="#242f38" x="0" y="1.5" width="12.2" height="24.65" shape-rendering="crispEdges"/><rect fill="#242f38" x="12.2" y="1.5" width="12.2" height="24.65" shape-rendering="crispEdges"/><rect fill="#242f38" x="24.4" y="1.5" width="61" height="24.65" shape-rendering="crispEdges"/><rect fill="#242f38" x="85.4" y="1.5" width="12.2" height="24.65" shape-rendering="crispEdges"/><rect fill="#242f38" x="97.6" y="1.5" width="451.4" height="24.65" shape-rendering="crispEdges"/><rect fill="#242f38" x="549" y="1.5" width="97.6" height="24.65" shape-rendering="crispEdges"/><rect fill="#242f38" x="646.6" y="1.5" width="463.6" height="24.65" shape-rendering="crispEdges"/><rect fill="#242f38" x="1110.2" y="1.5" width="12.2" height="24.65" shape-rendering="crispEdges"/><rect fill="#242f38" x="1122.4" y="1.5" width="0" height="24.65" shape-rendering="crispEdges"/><rect fill="#242f38" x="1122.4" y="1.5" width="97.6" height="24.65" shape-rendering="crispEdges"/><rect fill="#242f38" x="1220" y="1.5" width="12.2" height="24.65" shape-rendering="crispEdges"/><rect fill="#272727" x="0" y="25.9" width="305" height="24.65" shape-rendering="crispEdges"/><rect fill="#272727" x="305" y="25.9" width="915" height="24.65" shape-rendering="crispEdges"/><rect fill="#000000" x="1220" y="25.9" width="12.2" height="24.65" shape-rendering="crispEdges"/><rect fill="#272727" x="0" y="50.3" width="744.2" height="24.65" shape-rendering="crispEdges"/><rect fill="#272727" x="744.2" y="50.3" width="475.8" height="24.65" shape-rendering="crispEdges"/><rect fill="#000000" x="1220" y="50.3" width="12.2" height="24.65" shape-rendering="crispEdges"/><rect fill="#272727" x="0" y="74.7" width="1220" height="24.65" shape-rendering="crispEdges"/><rect fill="#000000" x="1220" y="74.7" width="12.2" height="24.65" shape-rendering="crispEdges"/><rect fill="#272727" x="0" y="99.1" width="1207.8" height="24.65" shape-rendering="crispEdges"/><rect fill="#272727" x="1207.8" y="99.1" width="12.2" height="24.65" shape-rendering="crispEdges"/><rect fill="#000000" x="1220" y="99.1" width="12.2" height="24.65" shape-rendering="crispEdges"/><rect fill="#272727" x="0" y="123.5" width="146.4" height="24.65" shape-rendering="crispEdges"/><rect fill="#272727" x="146.4" y="123.5" width="1073.6" height="24.65" shape-rendering="crispEdges"/><rect fill="#000000" x="1220" y="123.5" width="12.2" height="24.65" shape-rendering="crispEdges"/><rect fill="#272727" x="0" y="147.9" width="122" height="24.65" shape-rendering="crispEdges"/><rect fill="#272727" x="122" y="147.9" width="207.4" height="24.65" shape-rendering="crispEdges"/><rect fill="#272727" x="329.4" y="147.9" width="549" height="24.65" shape-rendering="crispEdges"/><rect fill="#272727" x="878.4" y="147.9" width="341.6" height="24.65" shape-rendering="crispEdges"/><rect fill="#000000" x="1220" y="147.9" width="12.2" height="24.65" shape-rendering="crispEdges"/><rect fill="#272727" x="0" y="172.3" width="183" height="24.65" shape-rendering="crispEdges"/><rect fill="#272727" x="183" y="172.3" width="1024.8" height="24.65" shape-rendering="crispEdges"/><rect fill="#272727" x="1207.8" y="172.3" width="12.2" height="24.65" shape-rendering="crispEdges"/><rect fill="#000000" x="1220" y="172.3" width="12.2" height="24.65" shape-rendering="crispEdges"/><rect fill="#272727" x="0" y="196.7" width="1195.6" height="24.65" shape-rendering="crispEdges"/><rect fill="#272727" x="1195.6" y="196.7" width="24.4" height="24.65" shape-rendering="crispEdges"/><rect fill="#000000" x="1220" y="196.7" width="12.2" height="24.65" shape-rendering="crispEdges"/><rect fill="#272727" x="0" y="221.1" width="451.4" height="24.65" shape-rendering="crispEdges"/><rect fill="#272727" x="451.4" y="221.1" width="768.6" height="24.65" shape-rendering="crispEdges"/><rect fill="#000000" x="1220" y="221.1" width="12.2" height="24.65" shape-rendering="crispEdges"/><rect fill="#272727" x="0" y="245.5" width="1220" height="24.65" shape-rendering="crispEdges"/><rect fill="#000000" x="1220" y="245.5" width="12.2" height="24.65" shape-rendering="crispEdges"/><rect fill="#272727" x="0" y="269.9" width="1207.8" height="24.65" shape-rendering="crispEdges"/><rect fill="#272727" x="1207.8" y="269.9" width="12.2" height="24.65" shape-rendering="crispEdges"/><rect fill="#000000" x="1220" y="269.9" width="12.2" height="24.65" shape-rendering="crispEdges"/><rect fill="#272727" x="0" y="294.3" width="231.8" height="24.65" shape-rendering="crispEdges"/><rect fill="#272727" x="231.8" y="294.3" width="988.2" height="24.65" shape-rendering="crispEdges"/><rect fill="#000000" x="1220" y="294.3" width="12.2" height="24.65" shape-rendering="crispEdges"/><rect fill="#272727" x="0" y="318.7" width="1183.4" height="24.65" shape-rendering="crispEdges"/><rect fill="#272727" x="1183.4" y="318.7" width="36.6" height="24.65" shape-rendering="crispEdges"/><rect fill="#000000" x="1220" y="318.7" width="12.2" height="24.65" shape-rendering="crispEdges"/><rect fill="#272727" x="0" y="343.1" width="1207.8" height="24.65" shape-rendering="crispEdges"/><rect fill="#272727" x="1207.8" y="343.1" width="12.2" height="24.65" shape-rendering="crispEdges"/><rect fill="#000000" x="1220" y="343.1" width="12.2" height="24.65" shape-rendering="crispEdges"/><rect fill="#272727" x="0" y="367.5" width="768.6" height="24.65" shape-rendering="crispEdges"/><rect fill="#272727" x="768.6" y="367.5" width="451.4" height="24.65" shape-rendering="crispEdges"/><rect fill="#000000" x="1220" y="367.5" width="12.2" height="24.65" shape-rendering="crispEdges"/><rect fill="#272727" x="0" y="391.9" width="85.4" height="24.65" shape-rendering="crispEdges"/><rect fill="#272727" x="85.4" y="391.9" width="1134.6" height="24.65" shape-rendering="crispEdges"/><rect fill="#000000" x="1220" y="391.9" width="12.2" height="24.65" shape-rendering="crispEdges"/><rect fill="#272727" x="0" y="416.3" width="122" height="24.65" shape-rendering="crispEdges"/><rect fill="#272727" x="122" y="416.3" width="1000.4" height="24.65" shape-rendering="crispEdges"/><rect fill="#272727" x="1122.4" y="416.3" width="97.6" height="24.65" shape-rendering="crispEdges"/><rect fill="#000000" x="1220" y="416.3" width="12.2" height="24.65" shape-rendering="crispEdges"/><rect fill="#272727" x="0" y="440.7" width="451.4" height="24.65" shape-rendering="crispEdges"/><rect fill="#272727" x="451.4" y="440.7" width="768.6" height="24.65" shape-rendering="crispEdges"/><rect fill="#000000" x="1220" y="440.7" width="12.2" height="24.65" shape-rendering="crispEdges"/><rect fill="#272727" x="0" y="465.1" width="1220" height="24.65" shape-rendering="crispEdges"/><rect fill="#000000" x="1220" y="465.1" width="12.2" height="24.65" shape-rendering="crispEdges"/><rect fill="#272727" x="0" y="489.5" width="1171.2" height="24.65" shape-rendering="crispEdges"/><rect fill="#272727" x="1171.2" y="489.5" width="48.8" height="24.65" shape-rendering="crispEdges"/><rect fill="#000000" x="1220" y="489.5" width="12.2" height="24.65" shape-rendering="crispEdges"/><rect fill="#272727" x="0" y="513.9" width="1207.8" height="24.65" shape-rendering="crispEdges"/><rect fill="#272727" x="1207.8" y="513.9" width="12.2" height="24.65" shape-rendering="crispEdges"/><rect fill="#000000" x="1220" y="513.9" width="12.2" height="24.65" shape-rendering="crispEdges"/><rect fill="#272727" x="0" y="538.3" width="780.8" height="24.65" shape-rendering="crispEdges"/><rect fill="#272727" x="780.8" y="538.3" width="439.2" height="24.65" shape-rendering="crispEdges"/><rect fill="#000000" x="1220" y="538.3" width="12.2" height="24.65" shape-rendering="crispEdges"/><rect fill="#272727" x="0" y="562.7" width="1220" height="24.65" shape-rendering="crispEdges"/><rect fill="#000000" x="1220" y="562.7" width="12.2" height="24.65" shape-rendering="crispEdges"/><rect fill="#272727" x="0" y="587.1" width="658.8" height="24.65" shape-rendering="crispEdges"/><rect fill="#272727" x="658.8" y="587.1" width="549" height="24.65" shape-rendering="crispEdges"/><rect fill="#272727" x="1207.8" y="587.1" width="12.2" height="24.65" shape-rendering="crispEdges"/><rect fill="#000000" x="1220" y="587.1" width="12.2" height="24.65" shape-rendering="crispEdges"/><rect fill="#272727" x="0" y="611.5" width="1220" height="24.65" shape-rendering="crispEdges"/><rect fill="#000000" x="1220" y="611.5" width="12.2" height="24.65" shape-rendering="crispEdges"/><rect fill="#272727" x="0" y="635.9" width="1220" height="24.65" shape-rendering="crispEdges"/><rect fill="#000000" x="1220" y="635.9" width="12.2" height="24.65" shape-rendering="crispEdges"/><rect fill="#272727" x="0" y="660.3" width="1220" height="24.65" shape-rendering="crispEdges"/><rect fill="#000000" x="1220" y="660.3" width="12.2" height="24.65" shape-rendering="crispEdges"/><rect fill="#272727" x="0" y="684.7" width="1220" height="24.65" shape-rendering="crispEdges"/><rect fill="#000000" x="1220" y="684.7" width="12.2" height="24.65" shape-rendering="crispEdges"/><rect fill="#1e1e1e" x="0" y="709.1" width="12.2" height="24.65" shape-rendering="crispEdges"/><rect fill="#1e1e1e" x="12.2" y="709.1" width="500.2" height="24.65" shape-rendering="crispEdges"/><rect fill="#1e1e1e" x="512.4" y="709.1" width="707.6" height="24.65" shape-rendering="crispEdges"/><rect fill="#1e1e1e" x="1220" y="709.1" width="12.2" height="24.65" shape-rendering="crispEdges"/><rect fill="#191919" x="0" y="733.5" width="12.2" height="24.65" shape-rendering="crispEdges"/><rect fill="#1e1e1e" x="12.2" y="733.5" width="1207.8" height="24.65" shape-rendering="crispEdges"/><rect fill="#121212" x="1220" y="733.5" width="12.2" height="24.65" shape-rendering="crispEdges"/><rect fill="#191919" x="0" y="757.9" width="12.2" height="24.65" shape-rendering="crispEdges"/><rect fill="#1e1e1e" x="12.2" y="757.9" width="24.4" height="24.65" shape-rendering="crispEdges"/><rect fill="#1e1e1e" x="36.6" y="757.9" width="317.2" height="24.65" shape-rendering="crispEdges"/><rect fill="#1e1e1e" x="353.8" y="757.9" width="841.8" height="24.65" shape-rendering="crispEdges"/><rect fill="#1e1e1e" x="1195.6" y="757.9" width="24.4" height="24.65" shape-rendering="crispEdges"/><rect fill="#121212" x="1220" y="757.9" width="12.2" height="24.65" shape-rendering="crispEdges"/><rect fill="#191919" x="0" y="782.3" width="12.2" height="24.65" shape-rendering="crispEdges"/><rect fill="#1e1e1e" x="12.2" y="782.3" width="1207.8" height="24.65" shape-rendering="crispEdges"/><rect fill="#121212" x="1220" y="782.3" width="12.2" height="24.65" shape-rendering="crispEdges"/><rect fill="#242f38" x="0" y="806.7" width="48.8" height="24.65" shape-rendering="crispEdges"/><rect fill="#242f38" x="48.8" y="806.7" width="61" height="24.65" shape-rendering="crispEdges"/><rect fill="#242f38" x="109.8" y="806.7" width="48.8" height="24.65" shape-rendering="crispEdges"/><rect fill="#242f38" x="158.6" y="806.7" width="195.2" height="24.65" shape-rendering="crispEdges"/><rect fill="#242f38" x="353.8" y="806.7" width="732" height="24.65" shape-rendering="crispEdges"/><rect fill="#242f38" x="1085.8" y="806.7" width="12.2" height="24.65" shape-rendering="crispEdges"/><rect fill="#242f38" x="1098" y="806.7" width="24.4" height="24.65" shape-rendering="crispEdges"/><rect fill="#242f38" x="1122.4" y="806.7" width="97.6" height="24.65" shape-rendering="crispEdges"/><rect fill="#242f38" x="1220" y="806.7" width="12.2" height="24.65" shape-rendering="crispEdges"/>
    <g class="terminal-87433680-matrix">
    <text class="terminal-87433680-r2" x="12.2" y="20" textLength="12.2" clip-path="url(#terminal-87433680-line-0)">⭘</text><text class="terminal-87433680-r2" x="549" y="20" textLength="97.6" clip-path="url(#terminal-87433680-line-0)">supervis</text><text class="terminal-87433680-r1" x="1232.2" y="20" textLength="12.2" clip-path="url(#terminal-87433680-line-0)">
</text><text class="terminal-87433680-r3" x="0" y="44.4" textLength="305" clip-path="url(#terminal-87433680-line-1)">Project:&#160;/home/tahir/chat</text><text class="terminal-87433680-r1" x="1232.2" y="44.4" textLength="12.2" clip-path="url(#terminal-87433680-line-1)">
</text><text class="terminal-87433680-r3" x="0" y="68.8" textLength="744.2" clip-path="url(#terminal-87433680-line-2)">Ctrl+D&#160;=&#160;interrupt&#160;agent&#160;·&#160;Ctrl+Q&#160;=&#160;quit&#160;·&#160;/help&#160;for&#160;commands</text><text class="terminal-87433680-r1" x="1232.2" y="68.8" textLength="12.2" clip-path="url(#terminal-87433680-line-2)">
</text><text class="terminal-87433680-r4" x="0" y="93.2" textLength="1220" clip-path="url(#terminal-87433680-line-3)">You:&#160;hi&#160;supervis!&#160;briefly&#160;introduce&#160;yourself&#160;to&#160;claude,&#160;ask&#160;in&#160;one&#160;sentence&#160;what&#160;it&#160;thinks&#160;of&#160;having</text><text class="terminal-87433680-r1" x="1232.2" y="93.2" textLength="12.2" clip-path="url(#terminal-87433680-line-3)">
</text><text class="terminal-87433680-r4" x="0" y="117.6" textLength="1207.8" clip-path="url(#terminal-87433680-line-4)">a&#160;supervisor&#160;layer&#160;between&#160;the&#160;user&#160;and&#160;claude&#160;versus&#160;direct&#160;interaction.&#160;get&#160;the&#160;answer,&#160;stop&#160;and&#160;</text><text class="terminal-87433680-r1" x="1232.2" y="117.6" textLength="12.2" clip-path="url(#terminal-87433680-line-4)">
</text><text class="terminal-87433680-r4" x="0" y="142" textLength="146.4" clip-path="url(#terminal-87433680-line-5)">wait&#160;for&#160;me.</text><text class="terminal-87433680-r1" x="1232.2" y="142" textLength="12.2" clip-path="url(#terminal-87433680-line-5)">
</text><text class="terminal-87433680-r5" x="0" y="166.4" textLength="122" clip-path="url(#terminal-87433680-line-6)">DeepSeek:&#160;</text><text class="terminal-87433680-r6" x="122" y="166.4" textLength="207.4" clip-path="url(#terminal-87433680-line-6)">(tool&#160;calls&#160;only)</text><text class="terminal-87433680-r3" x="329.4" y="166.4" textLength="549" clip-path="url(#terminal-87433680-line-6)">&#160;&#160;[in&#160;1.2k&#160;&#160;1.2k&#160;cached&#160;·&#160;out&#160;0.2k&#160;·&#160;$0.0001]</text><text class="terminal-87433680-r1" x="1232.2" y="166.4" textLength="12.2" clip-path="url(#terminal-87433680-line-6)">
</text><text class="terminal-87433680-r7" x="0" y="190.8" textLength="183" clip-path="url(#terminal-87433680-line-7)">┌─&#160;Claude&#160;Code&#160;</text><text class="terminal-87433680-r8" x="183" y="190.8" textLength="1024.8" clip-path="url(#terminal-87433680-line-7)">Hello&#160;Claude&#160;Code!&#160;I&#x27;m&#160;supervis,&#160;your&#160;new&#160;technical&#160;supervisor.&#160;I&#x27;ll&#160;be&#160;driving&#160;you&#160;</text><text class="terminal-87433680-r1" x="1232.2" y="190.8" textLength="12.2" clip-path="url(#terminal-87433680-line-7)">
</text><text class="terminal-87433680-r8" x="0" y="215.2" textLength="1195.6" clip-path="url(#terminal-87433680-line-8)">through&#160;tasks&#160;by&#160;calling&#160;run_claude.&#160;I&#x27;ll&#160;handle&#160;planning,&#160;delegation,&#160;and&#160;keeping&#160;things&#160;moving,&#160;</text><text class="terminal-87433680-r1" x="1232.2" y="215.2" textLength="12.2" clip-path="url(#terminal-87433680-line-8)">
</text><text class="terminal-87433680-r8" x="0" y="239.6" textLength="451.4" clip-path="url(#terminal-87433680-line-9)">while&#160;you&#160;do&#160;the&#160;actual&#160;coding&#160;work.&#160;</text><text class="terminal-87433680-r1" x="1232.2" y="239.6" textLength="12.2" clip-path="url(#terminal-87433680-line-9)">
</text><text class="terminal-87433680-r1" x="1232.2" y="264" textLength="12.2" clip-path="url(#terminal-87433680-line-10)">
</text><text class="terminal-87433680-r8" x="0" y="288.4" textLength="1207.8" clip-path="url(#terminal-87433680-line-11)">In&#160;one&#160;sentence:&#160;What&#160;do&#160;you&#160;think&#160;of&#160;having&#160;a&#160;supervisor&#160;layer&#160;between&#160;the&#160;user&#160;and&#160;Claude&#160;versus&#160;</text><text class="terminal-87433680-r1" x="1232.2" y="288.4" textLength="12.2" clip-path="url(#terminal-87433680-line-11)">
</text><text class="terminal-87433680-r8" x="0" y="312.8" textLength="231.8" clip-path="url(#terminal-87433680-line-12)">direct&#160;interaction?</text><text class="terminal-87433680-r1" x="1232.2" y="312.8" textLength="12.2" clip-path="url(#terminal-87433680-line-12)">
</text><text class="terminal-87433680-r9" x="0" y="337.2" textLength="1183.4" clip-path="url(#terminal-87433680-line-13)">│&#160;A&#160;supervisor&#160;layer&#160;can&#160;add&#160;useful&#160;orchestration&#160;for&#160;complex&#160;multi-step&#160;workflows,&#160;but&#160;for&#160;most&#160;</text><text class="terminal-87433680-r1" x="1232.2" y="337.2" textLength="12.2" clip-path="url(#terminal-87433680-line-13)">
</text><text class="terminal-87433680-r9" x="0" y="361.6" textLength="1207.8" clip-path="url(#terminal-87433680-line-14)">tasks&#160;direct&#160;interaction&#160;is&#160;simpler,&#160;lower-latency,&#160;and&#160;gives&#160;the&#160;user&#160;more&#160;control&#160;—&#160;so&#160;the&#160;value&#160;</text><text class="terminal-87433680-r1" x="1232.2" y="361.6" textLength="12.2" clip-path="url(#terminal-87433680-line-14)">
</text><text class="terminal-87433680-r9" x="0" y="386" textLength="768.6" clip-path="url(#terminal-87433680-line-15)">depends&#160;entirely&#160;on&#160;the&#160;complexity&#160;of&#160;what&#x27;s&#160;being&#160;coordinated.</text><text class="terminal-87433680-r1" x="1232.2" y="386" textLength="12.2" clip-path="url(#terminal-87433680-line-15)">
</text><text class="terminal-87433680-r7" x="0" y="410.4" textLength="85.4" clip-path="url(#terminal-87433680-line-16)">└─&#160;done</text><text class="terminal-87433680-r1" x="1232.2" y="410.4" textLength="12.2" clip-path="url(#terminal-87433680-line-16)">
</text><text class="terminal-87433680-r5" x="0" y="434.8" textLength="122" clip-path="url(#terminal-87433680-line-17)">DeepSeek:&#160;</text><text class="terminal-87433680-r10" x="122" y="434.8" textLength="1000.4" clip-path="url(#terminal-87433680-line-17)">Hi!&#160;I&#x27;m&#160;supervis,&#160;and&#160;I&#x27;ve&#160;just&#160;introduced&#160;myself&#160;to&#160;Claude&#160;Code.&#160;Here&#x27;s&#160;Claude&#x27;s&#160;</text><text class="terminal-87433680-r1" x="1232.2" y="434.8" textLength="12.2" clip-path="url(#terminal-87433680-line-17)">
</text><text class="terminal-87433680-r10" x="0" y="459.2" textLength="451.4" clip-path="url(#terminal-87433680-line-18)">one-sentence&#160;answer&#160;to&#160;your&#160;question:</text><text class="terminal-87433680-r1" x="1232.2" y="459.2" textLength="12.2" clip-path="url(#terminal-87433680-line-18)">
</text><text class="terminal-87433680-r1" x="1232.2" y="483.6" textLength="12.2" clip-path="url(#terminal-87433680-line-19)">
</text><text class="terminal-87433680-r10" x="0" y="508" textLength="1171.2" clip-path="url(#terminal-87433680-line-20)">&quot;A&#160;supervisor&#160;layer&#160;can&#160;add&#160;useful&#160;orchestration&#160;for&#160;complex&#160;multi-step&#160;workflows,&#160;but&#160;for&#160;most&#160;</text><text class="terminal-87433680-r1" x="1232.2" y="508" textLength="12.2" clip-path="url(#terminal-87433680-line-20)">
</text><text class="terminal-87433680-r10" x="0" y="532.4" textLength="1207.8" clip-path="url(#terminal-87433680-line-21)">tasks&#160;direct&#160;interaction&#160;is&#160;simpler,&#160;lower-latency,&#160;and&#160;gives&#160;the&#160;user&#160;more&#160;control&#160;—&#160;so&#160;the&#160;value&#160;</text><text class="terminal-87433680-r1" x="1232.2" y="532.4" textLength="12.2" clip-path="url(#terminal-87433680-line-21)">
</text><text class="terminal-87433680-r10" x="0" y="556.8" textLength="780.8" clip-path="url(#terminal-87433680-line-22)">depends&#160;entirely&#160;on&#160;the&#160;complexity&#160;of&#160;what&#x27;s&#160;being&#160;coordinated.&quot;</text><text class="terminal-87433680-r1" x="1232.2" y="556.8" textLength="12.2" clip-path="url(#terminal-87433680-line-22)">
</text><text class="terminal-87433680-r1" x="1232.2" y="581.2" textLength="12.2" clip-path="url(#terminal-87433680-line-23)">
</text><text class="terminal-87433680-r10" x="0" y="605.6" textLength="658.8" clip-path="url(#terminal-87433680-line-24)">I&#x27;m&#160;now&#160;stopped&#160;and&#160;waiting&#160;for&#160;your&#160;next&#160;instruction!</text><text class="terminal-87433680-r3" x="658.8" y="605.6" textLength="549" clip-path="url(#terminal-87433680-line-24)">&#160;&#160;[in&#160;2.7k&#160;&#160;2.3k&#160;cached&#160;·&#160;out&#160;0.3k&#160;·&#160;$0.0003]</text><text class="terminal-87433680-r1" x="1232.2" y="605.6" textLength="12.2" clip-path="url(#terminal-87433680-line-24)">
</text><text class="terminal-87433680-r1" x="1232.2" y="630" textLength="12.2" clip-path="url(#terminal-87433680-line-25)">
</text><text class="terminal-87433680-r1" x="1232.2" y="654.4" textLength="12.2" clip-path="url(#terminal-87433680-line-26)">
</text><text class="terminal-87433680-r1" x="1232.2" y="678.8" textLength="12.2" clip-path="url(#terminal-87433680-line-27)">
</text><text class="terminal-87433680-r1" x="1232.2" y="703.2" textLength="12.2" clip-path="url(#terminal-87433680-line-28)">
</text><text class="terminal-87433680-r11" x="12.2" y="727.6" textLength="500.2" clip-path="url(#terminal-87433680-line-29)">in&#160;2.7k&#160;&#160;2.3k&#160;cached&#160;·&#160;out&#160;0.3k&#160;·&#160;$0.0003</text><text class="terminal-87433680-r1" x="1232.2" y="727.6" textLength="12.2" clip-path="url(#terminal-87433680-line-29)">
</text><text class="terminal-87433680-r12" x="0" y="752" textLength="12.2" clip-path="url(#terminal-87433680-line-30)">▊</text><text class="terminal-87433680-r13" x="12.2" y="752" textLength="1207.8" clip-path="url(#terminal-87433680-line-30)">▔▔▔▔▔▔▔▔▔▔▔▔▔▔▔▔▔▔▔▔▔▔▔▔▔▔▔▔▔▔▔▔▔▔▔▔▔▔▔▔▔▔▔▔▔▔▔▔▔▔▔▔▔▔▔▔▔▔▔▔▔▔▔▔▔▔▔▔▔▔▔▔▔▔▔▔▔▔▔▔▔▔▔▔▔▔▔▔▔▔▔▔▔▔▔▔▔▔▔</text><text class="terminal-87433680-r13" x="1220" y="752" textLength="12.2" clip-path="url(#terminal-87433680-line-30)">▎</text><text class="terminal-87433680-r1" x="1232.2" y="752" textLength="12.2" clip-path="url(#terminal-87433680-line-30)">
</text><text class="terminal-87433680-r12" x="0" y="776.4" textLength="12.2" clip-path="url(#terminal-87433680-line-31)">▊</text><text class="terminal-87433680-r14" x="36.6" y="776.4" textLength="317.2" clip-path="url(#terminal-87433680-line-31)">Type&#160;a&#160;message&#160;or&#160;/help...</text><text class="terminal-87433680-r13" x="1220" y="776.4" textLength="12.2" clip-path="url(#terminal-87433680-line-31)">▎</text><text class="terminal-87433680-r1" x="1232.2" y="776.4" textLength="12.2" clip-path="url(#terminal-87433680-line-31)">
</text><text class="terminal-87433680-r12" x="0" y="800.8" textLength="12.2" clip-path="url(#terminal-87433680-line-32)">▊</text><text class="terminal-87433680-r13" x="12.2" y="800.8" textLength="1207.8" clip-path="url(#terminal-87433680-line-32)">▁▁▁▁▁▁▁▁▁▁▁▁▁▁▁▁▁▁▁▁▁▁▁▁▁▁▁▁▁▁▁▁▁▁▁▁▁▁▁▁▁▁▁▁▁▁▁▁▁▁▁▁▁▁▁▁▁▁▁▁▁▁▁▁▁▁▁▁▁▁▁▁▁▁▁▁▁▁▁▁▁▁▁▁▁▁▁▁▁▁▁▁▁▁▁▁▁▁▁</text><text class="terminal-87433680-r13" x="1220" y="800.8" textLength="12.2" clip-path="url(#terminal-87433680-line-32)">▎</text><text class="terminal-87433680-r1" x="1232.2" y="800.8" textLength="12.2" clip-path="url(#terminal-87433680-line-32)">
</text><text class="terminal-87433680-r15" x="0" y="825.2" textLength="48.8" clip-path="url(#terminal-87433680-line-33)">&#160;^q&#160;</text><text class="terminal-87433680-r2" x="48.8" y="825.2" textLength="61" clip-path="url(#terminal-87433680-line-33)">Quit&#160;</text><text class="terminal-87433680-r15" x="109.8" y="825.2" textLength="48.8" clip-path="url(#terminal-87433680-line-33)">&#160;^d&#160;</text><text class="terminal-87433680-r2" x="158.6" y="825.2" textLength="195.2" clip-path="url(#terminal-87433680-line-33)">Interrupt&#160;agent&#160;</text><text class="terminal-87433680-r16" x="1085.8" y="825.2" textLength="12.2" clip-path="url(#terminal-87433680-line-33)">▏</text><text class="terminal-87433680-r15" x="1098" y="825.2" textLength="24.4" clip-path="url(#terminal-87433680-line-33)">^p</text><text class="terminal-87433680-r2" x="1122.4" y="825.2" textLength="97.6" clip-path="url(#terminal-87433680-line-33)">&#160;palette</text>
    </g>
    </g>
</svg>
